<svg width="101" height="36" viewBox="0 0 101 36" fill="none" xmlns="http://www.w3.org/2000/svg">
<rect width="101" height="36" rx="18" fill="#232E40"/>
<path d="M13.236 23.112C12.2187 23.112 11.3647 22.8973 10.674 22.468C9.99267 22.0387 9.47933 21.446 9.134 20.69C8.78867 19.934 8.616 19.0613 8.616 18.072C8.616 17.0827 8.78867 16.2053 9.134 15.44C9.48867 14.6747 10.0067 14.0773 10.688 13.648C11.3787 13.2093 12.2327 12.99 13.25 12.99C13.9873 12.99 14.6313 13.1113 15.182 13.354C15.7327 13.5873 16.176 13.9233 16.512 14.362C16.8573 14.7913 17.086 15.3047 17.198 15.902H15.742C15.602 15.426 15.3173 15.048 14.888 14.768C14.4587 14.488 13.908 14.348 13.236 14.348C12.4893 14.348 11.8873 14.5207 11.43 14.866C10.982 15.2113 10.6553 15.664 10.45 16.224C10.2447 16.7747 10.142 17.372 10.142 18.016C10.142 18.6787 10.2493 19.2947 10.464 19.864C10.6787 20.4333 11.0193 20.8907 11.486 21.236C11.9527 21.5813 12.55 21.754 13.278 21.754C13.726 21.754 14.1227 21.6933 14.468 21.572C14.8133 21.4413 15.1027 21.2593 15.336 21.026C15.5693 20.7833 15.728 20.5033 15.812 20.186H17.366C17.2447 20.7927 16.9973 21.3153 16.624 21.754C16.2507 22.1927 15.7793 22.5287 15.21 22.762C14.6407 22.9953 13.9827 23.112 13.236 23.112ZM19.1425 23V15.622H20.5845V18.688H21.8165L23.8745 15.622H25.5265L23.1045 19.122L25.6665 23H23.9865L21.9565 19.962H20.5845V23H19.1425ZM26.9283 23V15.622H28.3703V20.844C28.4357 20.732 28.5197 20.6107 28.6223 20.48C28.725 20.34 28.8043 20.228 28.8603 20.144L32.2343 15.622H33.5783V23H32.1363V17.806C32.0617 17.9273 31.9823 18.0487 31.8983 18.17C31.8143 18.282 31.735 18.3847 31.6603 18.478L28.2863 23H26.9283ZM35.0005 25.198V21.726C35.2619 21.726 35.4719 21.656 35.6305 21.516C35.7892 21.376 35.9152 21.194 36.0085 20.97C36.1019 20.746 36.1719 20.4987 36.2185 20.228C36.2745 19.948 36.3212 19.6773 36.3585 19.416C36.4052 18.996 36.4332 18.5713 36.4425 18.142C36.4612 17.7033 36.4705 17.3393 36.4705 17.05C36.4799 16.8167 36.4845 16.5833 36.4845 16.35C36.4845 16.1073 36.4845 15.8647 36.4845 15.622H41.9585V21.726H42.9105V25.198H41.4965V23H36.4145V25.198H35.0005ZM37.1565 21.726H40.5025V16.91H37.8145C37.8145 17.274 37.8099 17.6753 37.8005 18.114C37.7912 18.5527 37.7725 18.968 37.7445 19.36C37.7259 19.584 37.7025 19.836 37.6745 20.116C37.6465 20.396 37.5952 20.676 37.5205 20.956C37.4459 21.236 37.3245 21.4927 37.1565 21.726ZM44.3321 23V15.622H45.7741V18.688H47.0061L49.0641 15.622H50.7161L48.2941 19.122L50.8561 23H49.1761L47.1461 19.962H45.7741V23H44.3321ZM54.3052 23.084C53.9786 23.084 53.6612 23.042 53.3532 22.958C53.0452 22.8647 52.7699 22.7293 52.5272 22.552C52.2846 22.3653 52.0886 22.1367 51.9392 21.866C51.7992 21.586 51.7292 21.2593 51.7292 20.886C51.7292 20.438 51.8132 20.0693 51.9812 19.78C52.1586 19.4813 52.3919 19.2527 52.6812 19.094C52.9706 18.926 53.3019 18.8093 53.6752 18.744C54.0579 18.6693 54.4546 18.632 54.8652 18.632H56.6712C56.6712 18.268 56.6152 17.9507 56.5032 17.68C56.3912 17.4 56.2139 17.1853 55.9712 17.036C55.7379 16.8773 55.4252 16.798 55.0332 16.798C54.7999 16.798 54.5759 16.826 54.3612 16.882C54.1559 16.9287 53.9786 17.008 53.8292 17.12C53.6799 17.232 53.5772 17.3813 53.5212 17.568H52.0092C52.0652 17.2133 52.1912 16.91 52.3872 16.658C52.5832 16.3967 52.8259 16.182 53.1152 16.014C53.4046 15.846 53.7126 15.7247 54.0392 15.65C54.3752 15.566 54.7159 15.524 55.0612 15.524C55.7706 15.524 56.3446 15.664 56.7832 15.944C57.2312 16.224 57.5579 16.6253 57.7632 17.148C57.9686 17.6707 58.0712 18.2913 58.0712 19.01V23H56.8252L56.7692 22.09C56.5546 22.3607 56.3072 22.5707 56.0272 22.72C55.7566 22.86 55.4719 22.9533 55.1732 23C54.8746 23.056 54.5852 23.084 54.3052 23.084ZM54.5572 21.866C54.9866 21.866 55.3599 21.796 55.6772 21.656C55.9946 21.5067 56.2372 21.2967 56.4052 21.026C56.5826 20.746 56.6712 20.4147 56.6712 20.032V19.738H55.3552C55.0846 19.738 54.8186 19.7473 54.5572 19.766C54.2959 19.7753 54.0579 19.8127 53.8432 19.878C53.6379 19.934 53.4746 20.032 53.3532 20.172C53.2319 20.312 53.1712 20.5127 53.1712 20.774C53.1712 21.026 53.2366 21.2313 53.3672 21.39C53.4979 21.5487 53.6706 21.67 53.8852 21.754C54.0999 21.8287 54.3239 21.866 54.5572 21.866ZM63.6993 23V21.768L66.4853 19.388C66.7187 19.192 66.9753 18.9727 67.2553 18.73C67.5447 18.4873 67.82 18.226 68.0813 17.946C68.352 17.666 68.5713 17.3673 68.7393 17.05C68.9167 16.7327 69.0053 16.4013 69.0053 16.056C69.0053 15.524 68.842 15.1087 68.5153 14.81C68.198 14.5113 67.764 14.362 67.2133 14.362C66.7467 14.362 66.35 14.46 66.0233 14.656C65.706 14.852 65.496 15.1273 65.3933 15.482H63.8813C63.9653 14.9127 64.1753 14.446 64.5113 14.082C64.8473 13.718 65.258 13.4473 65.7433 13.27C66.2287 13.0833 66.7373 12.99 67.2693 12.99C67.8853 12.99 68.436 13.102 68.9213 13.326C69.4067 13.55 69.7893 13.8813 70.0693 14.32C70.3493 14.7493 70.4893 15.2767 70.4893 15.902C70.4893 16.49 70.3773 17.0127 70.1533 17.47C69.9293 17.9273 69.6307 18.3427 69.2573 18.716C68.8933 19.0893 68.4967 19.4533 68.0673 19.808L65.8693 21.642H70.5593V23H63.6993ZM77.0262 23V21.082H71.7622V19.962L76.5222 13.102H78.4962V19.738H79.6442V21.082H78.4962V23H77.0262ZM73.5122 19.738H77.0262V14.572L73.5122 19.738ZM82.3293 23L88.5453 13.102H90.0293L83.8413 23H82.3293ZM89.1193 23.084C88.6619 23.084 88.2699 22.986 87.9433 22.79C87.6259 22.594 87.3786 22.328 87.2013 21.992C87.0333 21.6467 86.9493 21.2547 86.9493 20.816C86.9493 20.3587 87.0333 19.962 87.2013 19.626C87.3786 19.29 87.6306 19.0287 87.9573 18.842C88.2839 18.646 88.6713 18.548 89.1193 18.548C89.5673 18.548 89.9499 18.6413 90.2673 18.828C90.5846 19.0147 90.8273 19.2807 90.9953 19.626C91.1633 19.962 91.2473 20.354 91.2473 20.802C91.2473 21.2407 91.1586 21.6327 90.9813 21.978C90.8133 22.3233 90.5706 22.594 90.2533 22.79C89.9359 22.986 89.5579 23.084 89.1193 23.084ZM89.1053 21.936C89.3386 21.936 89.5253 21.8847 89.6653 21.782C89.8053 21.6793 89.9033 21.5393 89.9593 21.362C90.0246 21.1847 90.0573 21.0027 90.0573 20.816C90.0573 20.6293 90.0246 20.452 89.9593 20.284C89.9033 20.1067 89.8053 19.9667 89.6653 19.864C89.5253 19.7613 89.3386 19.71 89.1053 19.71C88.7506 19.71 88.4986 19.8267 88.3493 20.06C88.1999 20.284 88.1253 20.536 88.1253 20.816C88.1253 21.1147 88.1999 21.376 88.3493 21.6C88.5079 21.824 88.7599 21.936 89.1053 21.936ZM83.3093 17.526C82.8519 17.526 82.4599 17.428 82.1333 17.232C81.8159 17.036 81.5733 16.77 81.4053 16.434C81.2373 16.0887 81.1533 15.6967 81.1533 15.258C81.1533 14.8007 81.2373 14.404 81.4053 14.068C81.5733 13.732 81.8206 13.4707 82.1473 13.284C82.4739 13.088 82.8659 12.99 83.3233 12.99C83.7713 12.99 84.1539 13.0833 84.4713 13.27C84.7886 13.4567 85.0313 13.7227 85.1993 14.068C85.3673 14.404 85.4513 14.796 85.4513 15.244C85.4513 15.6827 85.3673 16.0747 85.1993 16.42C85.0313 16.7653 84.7839 17.036 84.4573 17.232C84.1399 17.428 83.7573 17.526 83.3093 17.526ZM83.3093 16.378C83.5426 16.378 83.7246 16.3267 83.8553 16.224C83.9953 16.112 84.0979 15.972 84.1633 15.804C84.2286 15.6267 84.2613 15.4447 84.2613 15.258C84.2613 15.062 84.2286 14.88 84.1633 14.712C84.0979 14.544 83.9953 14.4087 83.8553 14.306C83.7246 14.194 83.5426 14.138 83.3093 14.138C82.9546 14.138 82.6979 14.2547 82.5393 14.488C82.3899 14.712 82.3153 14.9687 82.3153 15.258C82.3153 15.5567 82.3899 15.818 82.5393 16.042C82.6979 16.266 82.9546 16.378 83.3093 16.378Z" fill="white"/>
</svg>
