<svg width="184" height="48" viewBox="0 0 184 48" fill="none" xmlns="http://www.w3.org/2000/svg">
<path d="M38.1401 9.85992C40.0913 11.8049 41.6169 14.1341 42.6201 16.6999L35.3201 23.9999L16.7001 5.37992C20.3223 3.96051 24.2798 3.62833 28.0879 4.42405C31.896 5.21978 35.3894 7.10886 38.1401 9.85992ZM5.38013 31.2999C6.33838 33.7547 7.77229 35.9958 9.59945 37.8947C11.4266 39.7935 13.611 41.3125 16.0271 42.3644C18.4432 43.4164 21.0433 43.9804 23.6781 44.0243C26.3129 44.0681 28.9304 43.5909 31.3801 42.6199L12.6801 23.9999L5.38013 31.2999Z" fill="#3276FF"/>
<path opacity="0.3" d="M16.7 5.3798L24 12.6798L5.38004 31.2998C4.40909 28.8501 3.93182 26.2326 3.97567 23.5978C4.01952 20.963 4.58361 18.3629 5.63554 15.9468C6.68747 13.5307 8.20648 11.3463 10.1053 9.51913C12.0041 7.69197 14.2453 6.25806 16.7 5.2998V5.3798ZM24 35.3798L31.3 42.6798C33.7548 41.7215 35.996 40.2876 37.8948 38.4605C39.7936 36.6333 41.3126 34.4489 42.3645 32.0328C43.4165 29.6168 43.9806 27.0166 44.0244 24.3818C44.0683 21.747 43.591 19.1296 42.62 16.6798L24 35.3798Z" fill="#3276FF"/>
<path d="M61.896 32.9999V16.0319H73.872V18.7679H64.896V23.2319H72.696V25.9199H64.896V30.2639H73.872V32.9999H61.896Z" fill="#232E40"/>
<path d="M76.7319 32.9999V16.0319H80.8359L85.5399 24.5999L90.1959 16.0319H94.1799V32.9999H91.1799V19.8239L86.1159 28.9919H84.8439L79.7319 19.8239V32.9999H76.7319Z" fill="#232E40"/>
<path d="M111.802 32.9999V16.0319H114.802V23.2799H122.722V16.0319H125.698V32.9999H122.722V26.0159H114.802V32.9999H111.802Z" fill="#232E40"/>
<path d="M129.498 32.9999V16.0319H133.602L138.306 24.5999L142.962 16.0319H146.946V32.9999H143.946V19.8239L138.882 28.9919H137.61L132.498 19.8239V32.9999H129.498Z" fill="#232E40"/>
<path d="M158.028 33.1919C156.284 33.1919 154.796 32.8239 153.564 32.0879C152.348 31.3519 151.412 30.3279 150.756 29.0159C150.116 27.7039 149.796 26.2079 149.796 24.5279C149.796 22.8159 150.124 21.3119 150.78 20.0159C151.436 18.7039 152.38 17.6799 153.612 16.9439C154.844 16.1919 156.332 15.8159 158.076 15.8159C159.82 15.8159 161.3 16.1839 162.516 16.9199C163.748 17.6559 164.692 18.6799 165.348 19.9919C166.004 21.2879 166.332 22.7839 166.332 24.4799C166.332 26.1599 166.004 27.6559 165.348 28.9679C164.708 30.2799 163.764 31.3119 162.516 32.0639C161.284 32.8159 159.788 33.1919 158.028 33.1919ZM158.076 30.4079C159.292 30.4079 160.284 30.1279 161.052 29.5679C161.82 29.0079 162.38 28.2799 162.732 27.3839C163.1 26.4879 163.284 25.5359 163.284 24.5279C163.284 23.7599 163.18 23.0239 162.972 22.3199C162.78 21.6159 162.468 20.9839 162.036 20.4239C161.62 19.8639 161.084 19.4239 160.428 19.1039C159.772 18.7679 158.988 18.5999 158.076 18.5999C156.876 18.5999 155.884 18.8799 155.1 19.4399C154.332 19.9999 153.764 20.7279 153.396 21.6239C153.028 22.5199 152.844 23.4879 152.844 24.5279C152.844 25.5519 153.028 26.5119 153.396 27.4079C153.764 28.3039 154.332 29.0319 155.1 29.5919C155.884 30.1359 156.876 30.4079 158.076 30.4079Z" fill="#232E40"/>
<path d="M169.177 32.9999V16.0319H172.393L180.577 28.3919V16.0319H183.577V32.9999H180.433L172.177 20.7119V32.9999H169.177Z" fill="#232E40"/>
<path d="M108.942 32.9999V16.0319H96.9663V18.7679H105.942V23.2319H98.1423V25.9199H105.942V30.2639H96.9663V32.9999H108.942Z" fill="#232E40"/>
</svg>
