<svg width="31" height="30" viewBox="0 0 31 30" fill="none" xmlns="http://www.w3.org/2000/svg">
<rect width="31" height="30" rx="15" fill="#FFC107"/>
<path d="M9.732 19.096C9.34 19.096 8.96 19.052 8.592 18.964C8.224 18.876 7.892 18.736 7.596 18.544C7.308 18.344 7.076 18.084 6.9 17.764C6.724 17.444 6.636 17.052 6.636 16.588C6.636 16.268 6.688 15.98 6.792 15.724C6.896 15.46 7.048 15.232 7.248 15.04C7.456 14.848 7.696 14.696 7.968 14.584C7.688 14.432 7.468 14.252 7.308 14.044C7.148 13.828 7.04 13.6 6.984 13.36C6.928 13.12 6.9 12.892 6.9 12.676C6.9 12.268 6.98 11.924 7.14 11.644C7.3 11.356 7.516 11.124 7.788 10.948C8.06 10.764 8.364 10.632 8.7 10.552C9.036 10.464 9.384 10.42 9.744 10.42C10.096 10.42 10.44 10.464 10.776 10.552C11.112 10.632 11.416 10.764 11.688 10.948C11.96 11.132 12.176 11.368 12.336 11.656C12.496 11.944 12.576 12.292 12.576 12.7C12.576 12.908 12.544 13.128 12.48 13.36C12.424 13.592 12.316 13.812 12.156 14.02C11.996 14.228 11.772 14.404 11.484 14.548C11.772 14.66 12.016 14.816 12.216 15.016C12.424 15.216 12.58 15.448 12.684 15.712C12.788 15.976 12.84 16.272 12.84 16.6C12.84 17.056 12.752 17.444 12.576 17.764C12.4 18.084 12.16 18.344 11.856 18.544C11.56 18.736 11.228 18.876 10.86 18.964C10.5 19.052 10.124 19.096 9.732 19.096ZM9.732 17.944C9.924 17.944 10.124 17.924 10.332 17.884C10.54 17.844 10.736 17.776 10.92 17.68C11.104 17.576 11.252 17.436 11.364 17.26C11.484 17.076 11.544 16.848 11.544 16.576C11.544 16.24 11.46 15.976 11.292 15.784C11.124 15.584 10.9 15.44 10.62 15.352C10.348 15.256 10.052 15.208 9.732 15.208C9.42 15.208 9.124 15.256 8.844 15.352C8.572 15.44 8.348 15.584 8.172 15.784C8.004 15.976 7.92 16.24 7.92 16.576C7.92 16.848 7.976 17.076 8.088 17.26C8.208 17.436 8.36 17.576 8.544 17.68C8.736 17.776 8.936 17.844 9.144 17.884C9.352 17.924 9.548 17.944 9.732 17.944ZM9.744 14.152C10.032 14.152 10.288 14.104 10.512 14.008C10.744 13.912 10.932 13.772 11.076 13.588C11.22 13.396 11.292 13.164 11.292 12.892C11.3 12.572 11.232 12.316 11.088 12.124C10.944 11.924 10.752 11.78 10.512 11.692C10.28 11.596 10.02 11.548 9.732 11.548C9.436 11.548 9.168 11.596 8.928 11.692C8.696 11.78 8.512 11.92 8.376 12.112C8.248 12.304 8.184 12.548 8.184 12.844C8.184 13.14 8.256 13.388 8.4 13.588C8.544 13.78 8.732 13.924 8.964 14.02C9.204 14.108 9.464 14.152 9.744 14.152ZM15.0606 19.12C14.8206 19.12 14.6206 19.044 14.4606 18.892C14.3086 18.74 14.2326 18.54 14.2326 18.292C14.2326 18.044 14.3126 17.844 14.4726 17.692C14.6326 17.532 14.8286 17.452 15.0606 17.452C15.2926 17.452 15.4846 17.532 15.6366 17.692C15.7966 17.844 15.8766 18.044 15.8766 18.292C15.8766 18.54 15.7966 18.74 15.6366 18.892C15.4846 19.044 15.2926 19.12 15.0606 19.12ZM20.0969 19.096C19.6569 19.096 19.2449 19.024 18.8609 18.88C18.4769 18.736 18.1449 18.516 17.8649 18.22C17.5929 17.916 17.4089 17.54 17.3129 17.092H18.6329C18.7609 17.38 18.9729 17.596 19.2689 17.74C19.5729 17.876 19.8809 17.944 20.1929 17.944C20.5929 17.944 20.9249 17.864 21.1889 17.704C21.4529 17.536 21.6609 17.312 21.8129 17.032C21.9729 16.744 22.0849 16.428 22.1489 16.084C22.2209 15.732 22.2569 15.372 22.2569 15.004C22.2569 14.964 22.2569 14.924 22.2569 14.884C22.2569 14.836 22.2569 14.796 22.2569 14.764C22.0969 15.052 21.8889 15.284 21.6329 15.46C21.3849 15.636 21.1129 15.76 20.8169 15.832C20.5209 15.904 20.2249 15.94 19.9289 15.94C19.4329 15.94 18.9769 15.84 18.5609 15.64C18.1529 15.432 17.8289 15.128 17.5889 14.728C17.3489 14.328 17.2289 13.844 17.2289 13.276C17.2289 12.692 17.3569 12.188 17.6129 11.764C17.8769 11.332 18.2369 11 18.6929 10.768C19.1489 10.536 19.6649 10.42 20.2409 10.42C20.8649 10.42 21.3849 10.548 21.8009 10.804C22.2169 11.06 22.5449 11.408 22.7849 11.848C23.0249 12.28 23.1929 12.76 23.2889 13.288C23.3929 13.808 23.4449 14.332 23.4449 14.86C23.4449 15.452 23.3849 16.004 23.2649 16.516C23.1449 17.028 22.9529 17.48 22.6889 17.872C22.4249 18.256 22.0769 18.556 21.6449 18.772C21.2209 18.988 20.7049 19.096 20.0969 19.096ZM20.1689 14.824C20.4969 14.824 20.7889 14.756 21.0449 14.62C21.3089 14.476 21.5129 14.288 21.6569 14.056C21.8089 13.816 21.8849 13.548 21.8849 13.252C21.8849 12.916 21.8089 12.624 21.6569 12.376C21.5129 12.12 21.3129 11.924 21.0569 11.788C20.8089 11.644 20.5249 11.572 20.2049 11.572C19.8689 11.572 19.5729 11.644 19.3169 11.788C19.0689 11.932 18.8729 12.128 18.7289 12.376C18.5849 12.624 18.5129 12.896 18.5129 13.192C18.5129 13.688 18.6569 14.084 18.9449 14.38C19.2409 14.676 19.6489 14.824 20.1689 14.824Z" fill="#232E40"/>
</svg>
