<svg width="112" height="17" viewBox="0 0 112 17" fill="none" xmlns="http://www.w3.org/2000/svg">
<g clip-path="url(#clip0_2917_731)">
<path d="M15.5754 6.22266L10.6568 5.47133L8.4521 0.775329C8.28743 0.424662 7.7121 0.424662 7.54743 0.775329L5.34343 5.47133L0.424766 6.22266C0.0207661 6.28466 -0.140567 6.776 0.142766 7.066L3.7161 10.7287L2.87143 15.9067C2.8041 16.318 3.24343 16.6267 3.60677 16.4247L8.0001 13.9967L12.3934 16.4253C12.7534 16.6253 13.1968 16.3227 13.1288 15.9073L12.2841 10.7293L15.8574 7.06666C16.1408 6.776 15.9788 6.28466 15.5754 6.22266Z" fill="#FFC107"/>
</g>
<g clip-path="url(#clip1_2917_731)">
<path d="M39.5754 6.22266L34.6568 5.47133L32.4521 0.775329C32.2874 0.424662 31.7121 0.424662 31.5474 0.775329L29.3434 5.47133L24.4248 6.22266C24.0208 6.28466 23.8594 6.776 24.1428 7.066L27.7161 10.7287L26.8714 15.9067C26.8041 16.318 27.2434 16.6267 27.6068 16.4247L32.0001 13.9967L36.3934 16.4253C36.7534 16.6253 37.1968 16.3227 37.1288 15.9073L36.2841 10.7293L39.8574 7.06666C40.1408 6.776 39.9788 6.28466 39.5754 6.22266Z" fill="#FFC107"/>
</g>
<g clip-path="url(#clip2_2917_731)">
<path d="M63.5754 6.22266L58.6568 5.47133L56.4521 0.775329C56.2874 0.424662 55.7121 0.424662 55.5474 0.775329L53.3434 5.47133L48.4248 6.22266C48.0208 6.28466 47.8594 6.776 48.1428 7.066L51.7161 10.7287L50.8714 15.9067C50.8041 16.318 51.2434 16.6267 51.6068 16.4247L56.0001 13.9967L60.3934 16.4253C60.7534 16.6253 61.1968 16.3227 61.1288 15.9073L60.2841 10.7293L63.8574 7.06666C64.1408 6.776 63.9788 6.28466 63.5754 6.22266Z" fill="#FFC107"/>
</g>
<g clip-path="url(#clip3_2917_731)">
<path d="M87.5754 6.22266L82.6568 5.47133L80.4521 0.775329C80.2874 0.424662 79.7121 0.424662 79.5474 0.775329L77.3434 5.47133L72.4248 6.22266C72.0208 6.28466 71.8594 6.776 72.1428 7.066L75.7161 10.7287L74.8714 15.9067C74.8041 16.318 75.2434 16.6267 75.6068 16.4247L80.0001 13.9967L84.3934 16.4253C84.7534 16.6253 85.1968 16.3227 85.1288 15.9073L84.2841 10.7293L87.8574 7.06666C88.1408 6.776 87.9788 6.28466 87.5754 6.22266Z" fill="#FFC107"/>
</g>
<g clip-path="url(#clip4_2917_731)">
<path d="M111.575 6.22266L106.657 5.47133L104.452 0.775329C104.287 0.424662 103.712 0.424662 103.547 0.775329L101.343 5.47133L96.4248 6.22266C96.0208 6.28466 95.8594 6.776 96.1428 7.066L99.7161 10.7287L98.8714 15.9067C98.8041 16.318 99.2434 16.6267 99.6068 16.4247L104 13.9967L108.393 16.4253C108.753 16.6253 109.197 16.3227 109.129 15.9073L108.284 10.7293L111.857 7.06666C112.141 6.776 111.979 6.28466 111.575 6.22266Z" fill="#F8F8FA"/>
</g>
<defs>
<clipPath id="clip0_2917_731">
<rect width="16" height="16" fill="white" transform="translate(0 0.5)"/>
</clipPath>
<clipPath id="clip1_2917_731">
<rect width="16" height="16" fill="white" transform="translate(24 0.5)"/>
</clipPath>
<clipPath id="clip2_2917_731">
<rect width="16" height="16" fill="white" transform="translate(48 0.5)"/>
</clipPath>
<clipPath id="clip3_2917_731">
<rect width="16" height="16" fill="white" transform="translate(72 0.5)"/>
</clipPath>
<clipPath id="clip4_2917_731">
<rect width="16" height="16" fill="white" transform="translate(96 0.5)"/>
</clipPath>
</defs>
</svg>
